<svg id="Layer_1" enable-background="new 0 0 512 512" height="512" viewBox="0 0 512 512" width="512" xmlns="http://www.w3.org/2000/svg"><g><g><g><g id="XMLID_1391_"><g id="XMLID_1392_"><g id="XMLID_1393_"><g id="XMLID_1394_"><g id="XMLID_1395_"><g id="XMLID_1396_"><g id="XMLID_1397_"><g id="XMLID_1398_"><g id="XMLID_1399_"><g id="XMLID_1400_"><g id="XMLID_1401_"><g id="XMLID_1402_"><g id="XMLID_1403_"><g id="XMLID_1404_"><g id="XMLID_1405_"><circle cx="256" cy="256" fill="#4d5ca9" r="256"/></g></g></g></g></g></g></g></g></g></g></g></g></g></g></g></g></g><path d="m87.226 394.697 111.33 110.828c18.466 4.234 37.693 6.475 57.444 6.475 141.385 0 256-114.615 256-256 0-4.969-.157-9.902-.436-14.801l-145.112-145.112z" fill="#354993"/><g><path d="m256 48.734c-84.221 0-152.495 68.274-152.495 152.495l-16.28 193.469 42.74 37.391 49.787-37.391 38.124 37.391 38.124-37.392 38.124 37.391 38.124-37.391 49.788 37.391 42.74-37.391-16.28-193.469c-.001-84.22-68.275-152.494-152.496-152.494z" fill="#fff5cc"/><path d="m424.77 394.7-42.74 37.39-49.78-37.39-38.13 37.39-38.12-37.39v-345.97c84.22 0 152.49 68.28 152.49 152.5z" fill="#fde997"/><g><path d="m217.641 191.253-62.722-29.652s-3.678 57.674 39.304 49.121c8.721-1.736 20.43-11.323 23.418-19.469z" fill="#634c39"/><path d="m294.359 191.253 62.722-29.652s3.678 57.674-39.304 49.121c-8.721-1.736-20.43-11.323-23.418-19.469z" fill="#442e1f"/></g><path d="m305.759 258.962c-9.081-1.068-17.343-5.767-22.903-13.025l-.001-.001c-13.541-17.676-40.17-17.675-53.71 0-5.56 7.258-13.822 11.957-22.903 13.025-13.54 1.593-19.637 17.806-10.502 27.926l60.26 66.753 60.261-66.753c9.135-10.118 3.038-26.332-10.502-27.925z" fill="#fcb42d"/><path d="m316.26 286.89-60.26 66.75v-120.96c10.04 0 20.08 4.42 26.85 13.26h.01c5.56 7.26 13.82 11.95 22.9 13.02 13.54 1.6 19.64 17.81 10.5 27.93z" fill="#ee9521"/></g></g></svg>